# xmcd
#
# Track frame offsets: 
#        150
#        31902
#        59145
#        93159
#        119176
#        140915
#        165240
#        200166
#        222018
#        252708
#        281372
#        308132
#
# Disc length: 4607 seconds
#
# Revision: 3
# Processed by: cddbd v1.5.2PL0 Copyright (c) Steve Scherf et al.
# Submitted via: ExactAudioCopy v0.95b4
#
DISCID=bc11fd0c
DTITLE=Various Artist - Retro:Active 5
DYEAR=2006
DGENRE=Pop
TTITLE0=A-Ha - I've Been Losing You (Extended Mix)
TTITLE1=Seona Dancing - More To Lose (Extended Mix)
TTITLE2=Blancmange - That's Love, That It Is (Extended Remix Version)
TTITLE3=Dead Or Alive - Lover Come Back To Me (Extended Remix)
TTITLE4=Strange Advance - Love Games (Dance Mix)
TTITLE5=Love and Rockets - Mirror People '88 (Extended Version)
TTITLE6=Aztec Camera - Walk Out To Winter (Extended Version)
TTITLE7=Kah, Hubert - The Picture (12" Remix)
TTITLE8=Psychedelic Furs, The - Pretty In Pink (Berlin Mix)
TTITLE9=Leisure Process - Love Cascade (12" Version)
TTITLE10=Red Box - For America (Bazooka Mix)
TTITLE11=Cult, The - She Sells Sanctuary (Howling Mix)
EXTD=
EXTT0=
EXTT1=
EXTT2=
EXTT3=
EXTT4=
EXTT5=
EXTT6=
EXTT7=
EXTT8=
EXTT9=
EXTT10=
EXTT11=
PLAYORDER=
